<?xml version="1.0" standalone="no"?>
<!DOCTYPE svg PUBLIC "-//W3C//DTD SVG 20010904//EN"
 "http://www.w3.org/TR/2001/REC-SVG-20010904/DTD/svg10.dtd">
<svg version="1.0" xmlns="http://www.w3.org/2000/svg"
 width="6041.000000pt" height="6041.000000pt" viewBox="0 0 6041.000000 6041.000000"
 preserveAspectRatio="xMidYMid meet">
<metadata>
Created by potrace 1.11, written by Peter Selinger 2001-2013
</metadata>
<g transform="translate(0.000000,6041.000000) scale(0.100000,-0.100000)"
fill="#000000" stroke="none">
<path d="M51220 47210 c-8 -5 -559 -1104 -4693 -9362 -1027 -2050 -1871 -3736
-1877 -3745 -10 -19 -190 -380 -297 -598 -35 -71 -68 -138 -74 -149 -6 -10
-78 -154 -160 -320 -82 -165 -154 -309 -160 -320 -10 -17 -751 -1496 -4822
-9628 l-1676 -3348 43 -82 c24 -46 92 -177 151 -293 59 -115 131 -255 160
-310 29 -55 76 -147 105 -205 30 -58 65 -123 78 -145 14 -22 25 -41 24 -43 -3
-3 18 -45 243 -477 34 -66 104 -201 155 -300 51 -99 123 -238 160 -310 37 -71
114 -220 170 -330 56 -110 119 -231 140 -270 20 -38 86 -164 145 -280 59 -115
133 -259 165 -320 55 -106 126 -243 300 -580 45 -88 115 -223 155 -300 40 -77
116 -225 170 -330 54 -104 121 -235 150 -290 29 -55 93 -179 142 -275 109
-211 222 -429 313 -605 37 -71 114 -220 170 -330 148 -287 136 -267 148 -253
5 7 118 229 250 493 132 264 400 797 595 1185 196 388 377 750 404 804 26 55
53 108 58 118 12 23 656 1302 1222 2428 229 454 420 830 425 837 5 7 11 18 12
25 1 7 37 82 79 165 42 84 77 156 78 160 0 5 4 13 9 18 9 11 167 325 2225
4420 296 589 721 1433 944 1877 223 444 612 1218 865 1720 1092 2173 1229
2444 1238 2456 6 6 8 12 4 12 -3 0 4 17 17 38 13 20 25 40 26 44 2 11 57 122
496 993 448 891 1084 2156 1790 3560 1251 2488 1486 2956 2768 5505 267 531
679 1352 917 1825 238 473 622 1236 853 1695 231 459 431 858 444 885 13 28
28 57 33 65 5 8 30 60 57 114 26 55 53 108 58 118 50 94 1125 2234 1125 2240
0 5 -6511 3 -6520 -2z"/>
<path d="M19128 47195 c-1 -2 -83 -6 -180 -10 -97 -4 -196 -8 -220 -10 -24 -2
-97 -7 -163 -10 -66 -4 -136 -8 -155 -10 -45 -4 -171 -15 -235 -20 -27 -2 -77
-6 -110 -10 -58 -6 -90 -9 -205 -20 -30 -3 -71 -8 -90 -10 -19 -3 -60 -7 -90
-10 -30 -3 -66 -8 -80 -10 -14 -2 -47 -6 -75 -10 -67 -8 -102 -12 -152 -19
-24 -3 -62 -8 -85 -11 -24 -3 -68 -10 -98 -15 -30 -5 -77 -12 -105 -16 -27 -3
-59 -8 -70 -10 -11 -3 -36 -7 -55 -10 -19 -2 -46 -7 -60 -9 -14 -3 -38 -7 -55
-9 -70 -11 -299 -53 -335 -61 -14 -3 -38 -7 -55 -9 -16 -2 -84 -15 -150 -29
-66 -14 -131 -28 -145 -31 -14 -2 -45 -9 -70 -15 -25 -5 -57 -12 -73 -15 -15
-2 -35 -7 -45 -10 -9 -3 -28 -7 -42 -10 -41 -7 -169 -37 -250 -58 -41 -11 -86
-22 -100 -24 -47 -9 -334 -86 -525 -141 -104 -30 -198 -56 -207 -58 -63 -14
-586 -183 -808 -261 -355 -124 -872 -328 -1205 -476 -49 -22 -103 -46 -120
-53 -16 -7 -79 -36 -139 -64 -59 -28 -110 -51 -112 -51 -8 0 -575 -283 -704
-351 -111 -58 -364 -197 -540 -296 -174 -98 -704 -423 -708 -435 -2 -4 -8 -8
-12 -8 -9 0 -368 -237 -542 -358 -278 -194 -684 -499 -958 -721 -298 -241
-573 -478 -809 -696 -36 -33 -97 -89 -135 -125 -39 -36 -222 -216 -406 -400
-325 -324 -404 -407 -635 -664 -38 -43 -81 -90 -95 -106 -14 -15 -41 -46 -60
-70 -19 -23 -42 -49 -50 -59 -9 -9 -43 -47 -75 -86 -33 -38 -62 -72 -65 -75
-3 -3 -37 -43 -75 -90 -38 -47 -72 -87 -75 -90 -3 -3 -61 -75 -129 -160 -67
-85 -129 -163 -137 -173 -158 -195 -493 -660 -711 -986 -90 -135 -170 -255
-177 -267 -66 -98 -456 -738 -456 -749 0 -2 -13 -26 -29 -53 -34 -58 -71 -124
-119 -212 -19 -36 -47 -87 -62 -115 -15 -27 -44 -81 -65 -119 -49 -90 -303
-599 -350 -701 -154 -332 -273 -606 -375 -861 -28 -71 -55 -138 -61 -149 -43
-95 -218 -581 -319 -885 -61 -183 -197 -620 -205 -660 -2 -8 -15 -58 -29 -110
-15 -52 -34 -120 -42 -150 -8 -30 -19 -68 -24 -85 -11 -39 -118 -473 -123
-505 -3 -14 -12 -54 -21 -90 -14 -60 -41 -183 -52 -237 -2 -13 -6 -33 -9 -45
-8 -39 -55 -282 -61 -313 -2 -16 -7 -37 -9 -45 -2 -8 -6 -31 -9 -50 -3 -19 -8
-46 -11 -60 -7 -34 -52 -304 -60 -360 -9 -64 -15 -101 -20 -130 -3 -14 -7 -42
-10 -64 -4 -37 -8 -63 -20 -151 -3 -23 -7 -50 -9 -60 -2 -11 -7 -49 -10 -85
-4 -36 -8 -75 -10 -85 -2 -11 -7 -54 -11 -95 -4 -41 -9 -82 -10 -90 -2 -8 -6
-49 -10 -90 -3 -41 -8 -82 -10 -90 -2 -8 -6 -55 -10 -105 -3 -49 -8 -106 -10
-125 -3 -19 -7 -69 -10 -110 -3 -41 -7 -97 -9 -125 -2 -27 -7 -99 -11 -160 -3
-60 -8 -139 -10 -175 -25 -385 -25 -1501 0 -1790 3 -42 12 -181 20 -325 3 -59
11 -158 20 -245 2 -25 7 -81 11 -125 8 -92 9 -107 18 -195 7 -61 9 -83 21
-177 2 -21 7 -63 10 -93 4 -30 8 -66 10 -80 2 -14 7 -50 10 -80 4 -30 9 -63
11 -73 2 -10 6 -46 9 -80 4 -34 8 -64 10 -67 1 -3 6 -32 10 -65 3 -33 13 -97
21 -143 8 -45 16 -97 19 -115 7 -59 16 -112 20 -127 2 -8 7 -31 10 -50 3 -19
7 -46 10 -60 3 -14 7 -41 10 -60 5 -29 22 -120 50 -260 3 -14 8 -38 11 -55 7
-42 63 -302 74 -350 6 -22 12 -51 14 -65 3 -19 92 -384 112 -460 2 -8 8 -33
14 -55 6 -22 12 -47 14 -55 2 -8 14 -51 26 -95 12 -44 23 -87 25 -95 26 -97
124 -427 187 -625 53 -171 221 -660 243 -710 7 -16 32 -82 55 -145 23 -63 50
-134 61 -157 10 -24 19 -46 19 -49 0 -6 120 -304 144 -359 43 -94 56 -125 56
-130 0 -2 11 -28 24 -57 13 -29 47 -105 76 -168 70 -157 72 -162 125 -275 333
-715 798 -1538 1244 -2203 31 -46 61 -92 67 -103 6 -10 18 -27 27 -37 10 -10
17 -23 17 -29 0 -6 4 -13 8 -15 5 -1 28 -32 52 -68 245 -366 826 -1115 1124
-1450 27 -30 63 -71 79 -90 337 -388 851 -916 1237 -1270 56 -52 115 -106 130
-120 37 -34 165 -148 220 -196 60 -52 110 -97 124 -109 24 -22 247 -207 357
-296 162 -132 168 -136 229 -182 30 -23 61 -47 68 -54 21 -20 430 -326 537
-401 144 -102 323 -226 435 -302 276 -188 1115 -700 1146 -700 4 0 15 -6 23
-14 9 -7 61 -37 116 -66 55 -30 150 -80 210 -113 106 -57 687 -345 810 -402
33 -15 121 -54 195 -87 74 -33 158 -70 186 -83 28 -13 129 -55 225 -95 96 -39
183 -75 194 -80 91 -42 592 -228 880 -326 251 -86 831 -264 909 -280 10 -2 33
-8 51 -14 18 -6 42 -13 54 -15 11 -3 29 -7 39 -10 63 -17 220 -58 235 -61 9
-2 25 -6 35 -8 112 -28 320 -79 332 -81 8 -2 35 -8 60 -14 25 -5 56 -12 70
-15 14 -2 68 -14 120 -26 52 -12 104 -23 115 -25 11 -2 56 -10 100 -19 44 -9
91 -18 105 -21 34 -7 128 -24 165 -30 17 -3 54 -10 84 -16 30 -6 64 -12 75
-14 12 -1 35 -5 51 -8 17 -3 48 -9 70 -12 22 -3 78 -12 125 -20 97 -16 134
-21 205 -30 28 -3 75 -10 105 -15 30 -5 78 -12 105 -15 28 -4 64 -8 80 -10 53
-7 108 -14 170 -20 33 -4 71 -8 85 -11 14 -2 54 -6 90 -9 36 -3 76 -8 90 -10
14 -2 59 -6 100 -10 41 -3 93 -8 115 -10 22 -3 76 -7 120 -10 44 -3 100 -7
125 -10 25 -3 81 -7 125 -10 44 -2 127 -7 185 -11 516 -30 1222 -34 1745 -9
154 7 334 17 375 20 25 2 86 7 135 10 50 4 108 8 130 11 22 2 72 6 110 9 39 3
84 7 100 9 17 3 68 7 115 11 47 4 93 9 104 11 10 2 51 6 90 10 39 3 73 8 76 9
3 2 41 6 85 10 44 4 83 9 86 11 4 2 33 6 65 9 33 4 100 13 150 21 50 8 111 16
136 19 25 3 54 7 64 9 19 4 82 14 139 22 17 3 80 13 141 24 61 11 129 22 150
26 21 3 118 21 214 40 96 20 186 37 200 40 14 2 36 7 50 10 14 3 36 8 50 11
22 4 76 15 135 29 11 3 31 7 45 10 76 16 204 45 210 49 4 2 21 7 38 10 17 3
93 21 169 40 76 20 145 37 153 39 129 32 496 135 610 170 41 13 100 31 130 41
164 49 666 217 750 250 19 8 109 42 200 76 161 60 445 170 485 189 11 5 99 43
195 84 277 117 341 146 675 304 165 78 628 313 710 361 17 10 64 36 105 58
148 80 196 107 232 130 21 13 40 23 43 23 8 0 544 322 680 410 666 426 1280
878 1860 1369 192 163 214 182 235 201 9 8 52 46 96 85 43 38 93 83 110 100
17 16 64 59 104 95 312 278 782 757 1205 1226 165 183 497 580 650 778 17 22
48 62 71 90 39 50 356 474 382 512 7 11 45 64 84 119 131 183 518 766 518 781
0 3 11 20 25 38 14 18 25 38 25 44 0 6 3 12 8 14 8 3 268 440 350 588 13 25
32 59 42 75 16 28 37 65 123 225 71 132 128 243 125 245 -2 1 -52 23 -113 49
-60 27 -135 60 -165 73 -30 14 -120 54 -200 88 -80 35 -180 79 -223 99 -42 20
-79 36 -82 36 -2 0 -32 13 -67 29 -35 17 -202 91 -373 167 -170 75 -329 145
-352 155 -50 22 -64 28 -338 149 -115 51 -235 104 -265 117 -30 14 -91 41
-135 60 -44 19 -105 46 -135 60 -30 14 -71 32 -90 40 -19 8 -53 23 -75 33 -22
10 -119 53 -215 95 -96 42 -195 86 -220 98 -25 11 -47 21 -50 22 -3 0 -31 13
-64 28 -32 15 -60 27 -62 27 -2 0 -27 11 -56 24 -115 52 -155 70 -193 86 -22
10 -60 27 -85 38 -25 11 -124 55 -220 97 -96 42 -197 87 -225 100 -27 12 -84
37 -125 55 -41 18 -108 48 -148 66 -41 19 -75 34 -77 34 -5 0 -79 33 -193 86
-41 19 -76 34 -78 34 -3 0 -26 10 -52 21 -176 81 -448 199 -457 199 -5 0 -28
-33 -49 -73 -206 -381 -678 -1088 -966 -1447 -205 -254 -418 -504 -584 -685
-111 -121 -547 -558 -641 -644 -33 -29 -78 -70 -100 -90 -48 -44 -200 -178
-235 -208 -14 -12 -47 -40 -75 -63 -27 -23 -60 -51 -73 -61 -82 -69 -362 -290
-452 -355 -36 -27 -96 -71 -135 -100 -106 -77 -317 -223 -435 -299 -58 -37
-123 -80 -145 -95 -34 -23 -182 -112 -407 -246 -31 -19 -59 -34 -64 -34 -4 0
-15 -6 -23 -14 -9 -7 -61 -37 -116 -66 -55 -29 -105 -56 -110 -61 -22 -17
-558 -281 -700 -344 -198 -88 -224 -99 -265 -115 -19 -7 -53 -21 -75 -31 -127
-55 -464 -183 -620 -234 -39 -13 -88 -30 -110 -38 -53 -20 -446 -142 -490
-152 -11 -2 -60 -16 -110 -30 -71 -20 -223 -59 -350 -89 -5 -2 -21 -6 -35 -9
-97 -24 -214 -49 -325 -72 -71 -14 -141 -28 -155 -30 -14 -3 -41 -8 -60 -11
-19 -3 -42 -7 -50 -9 -8 -3 -32 -7 -54 -11 -21 -3 -48 -8 -60 -10 -11 -2 -41
-7 -66 -10 -25 -3 -52 -7 -60 -9 -8 -3 -31 -7 -50 -9 -19 -3 -71 -10 -115 -17
-44 -6 -93 -13 -110 -14 -16 -2 -43 -6 -60 -8 -54 -10 -195 -25 -375 -42 -36
-3 -83 -8 -105 -10 -22 -2 -80 -7 -130 -10 -49 -4 -117 -8 -150 -10 -447 -31
-1249 -22 -1665 20 -19 2 -73 6 -120 10 -47 4 -87 8 -90 10 -3 1 -45 6 -95 10
-49 4 -92 8 -95 10 -3 2 -39 6 -80 10 -41 4 -77 8 -80 10 -3 1 -32 6 -65 10
-32 3 -62 8 -65 10 -3 1 -32 6 -65 9 -52 6 -136 20 -250 41 -43 8 -134 24
-174 31 -18 3 -43 8 -55 10 -11 3 -41 9 -66 14 -25 5 -108 23 -185 40 -77 17
-151 33 -165 36 -14 2 -33 7 -42 10 -9 3 -25 7 -36 9 -61 11 -407 106 -587
160 -625 188 -1227 427 -1795 712 -241 120 -420 215 -472 249 -21 13 -40 24
-42 24 -22 0 -540 319 -771 475 -226 153 -590 416 -615 445 -3 3 -23 19 -45
35 -71 53 -376 306 -505 419 -1031 910 -1879 1979 -2529 3189 -90 167 -331
657 -331 672 0 2 -16 39 -36 82 -20 43 -65 148 -100 233 -36 85 -69 164 -74
175 -31 65 -185 497 -265 745 -109 338 -239 836 -305 1170 -5 25 -11 55 -14
66 -2 12 -7 38 -10 59 -4 20 -8 40 -10 44 -2 3 -7 31 -11 61 -4 30 -8 57 -10
60 -2 3 -6 24 -9 46 -4 22 -9 51 -11 64 -3 14 -8 43 -10 65 -3 22 -7 47 -10
55 -2 8 -7 40 -10 70 -3 30 -8 62 -10 70 -2 8 -7 40 -10 70 -3 30 -8 62 -10
70 -2 8 -7 42 -10 75 -8 85 -15 145 -20 180 -2 17 -7 62 -11 100 -3 39 -7 86
-9 105 -2 19 -6 71 -10 115 -3 44 -7 107 -10 140 -22 259 -32 842 -20 1150 6
162 16 361 20 410 2 22 6 81 10 132 3 50 8 102 10 115 2 13 6 59 10 103 3 44
8 94 10 110 2 17 7 53 11 80 3 28 6 57 6 65 0 8 6 56 14 105 7 50 16 113 19
140 4 28 9 64 11 80 3 17 6 41 8 55 4 23 29 174 41 245 3 17 12 64 20 105 8
41 16 86 19 100 2 14 7 36 10 50 3 14 8 36 10 50 3 14 12 59 21 100 9 41 19
86 21 100 3 14 14 61 26 105 11 44 22 91 24 105 3 14 8 34 11 45 4 11 8 25 9
30 8 44 87 328 139 500 57 190 172 529 240 710 14 39 30 81 34 95 5 14 17 45
29 70 11 25 30 72 43 105 12 33 33 85 46 115 13 30 28 64 33 75 180 415 350
761 526 1073 30 52 54 96 54 98 0 2 51 88 113 191 428 712 842 1265 1426 1908
83 90 574 579 675 670 54 50 106 97 115 105 101 91 402 345 506 425 29 22 99
76 156 120 457 354 1038 726 1584 1017 97 52 553 278 560 278 2 0 48 20 101
45 53 25 98 45 101 45 3 0 33 13 67 29 99 46 475 194 671 264 223 80 641 213
729 232 10 3 33 9 51 15 18 6 41 13 51 15 10 2 78 20 149 38 72 19 164 42 205
52 41 9 82 18 90 21 52 13 99 24 129 29 19 3 37 7 40 9 3 2 24 7 46 10 22 3
94 17 160 31 119 24 323 60 400 70 22 3 49 7 60 9 17 3 96 15 215 32 19 2 57
7 85 9 27 3 57 7 65 10 8 2 49 7 90 10 41 3 84 7 95 9 11 2 58 7 105 11 47 4
99 9 115 10 31 3 177 13 280 20 376 24 922 24 1330 0 136 -7 262 -16 285 -20
14 -2 63 -6 110 -10 47 -4 96 -8 110 -10 14 -3 50 -7 80 -10 30 -3 71 -7 90
-10 19 -2 55 -7 80 -10 25 -3 77 -10 115 -15 39 -5 88 -12 110 -15 23 -3 50
-7 60 -9 11 -2 40 -7 65 -10 25 -3 54 -8 65 -10 11 -2 63 -11 115 -20 140 -24
145 -25 275 -51 66 -13 134 -27 150 -30 17 -2 39 -7 50 -9 24 -5 180 -34 215
-40 20 -3 209 -40 314 -62 150 -30 548 -128 736 -181 69 -19 132 -36 140 -38
25 -6 223 -65 265 -79 41 -14 154 -49 168 -52 4 -1 8 -2 10 -3 1 -1 74 -26
162 -55 294 -99 617 -218 750 -276 11 -4 63 -25 115 -45 115 -46 437 -184 538
-231 40 -19 74 -34 76 -34 24 0 771 -373 1029 -513 135 -74 203 -111 252 -139
28 -15 53 -28 57 -28 4 0 -3 19 -16 43 -13 23 -179 350 -368 727 -190 377
-445 881 -565 1120 -121 239 -366 723 -543 1075 -178 352 -352 696 -387 765
-34 68 -63 130 -63 136 0 7 -4 14 -8 16 -4 2 -90 167 -191 368 -179 354 -298
592 -929 1840 -165 327 -365 724 -444 881 l-143 287 -120 25 c-66 15 -133 29
-150 32 -16 2 -39 7 -50 9 -48 10 -233 45 -270 51 -22 4 -44 8 -50 9 -5 2 -32
6 -60 10 -27 4 -70 11 -95 16 -45 9 -96 17 -160 26 -19 2 -46 6 -60 9 -48 9
-263 40 -358 51 -26 3 -56 7 -68 8 -11 2 -52 8 -90 12 -38 4 -71 8 -74 9 -3 1
-41 5 -85 9 -44 5 -87 10 -95 11 -8 2 -51 6 -95 10 -44 4 -91 8 -105 10 -25 4
-127 13 -225 20 -45 3 -152 11 -275 20 -25 2 -108 6 -185 10 -77 4 -162 9
-190 11 -57 6 -1271 14 -1277 9z"/>
</g>
</svg>
